<svg width="105" height="32" viewBox="0 0 105 32" fill="none" xmlns="http://www.w3.org/2000/svg">
<rect x="1" width="104" height="32" rx="4" fill="#171921"/>
<path d="M0.943359 4C0.943359 1.79086 2.73422 0 4.94336 0H100.943C103.152 0 104.943 1.79086 104.943 4V28C104.943 30.2091 103.152 32 100.943 32H4.94336C2.73422 32 0.943359 30.2091 0.943359 28V4Z" fill="#171921"/>
<path d="M36.1115 10.7088C35.9606 10.7088 35.822 10.6721 35.6956 10.5987C35.5692 10.5253 35.4693 10.4254 35.396 10.299C35.3226 10.1727 35.2859 10.034 35.2859 9.8832V7.13133C35.2859 6.98048 35.3226 6.84187 35.396 6.71549C35.4693 6.58911 35.5692 6.48922 35.6956 6.41584C35.822 6.34246 35.9606 6.30576 36.1115 6.30576H39.6767V7.04571H36.2399C36.1746 7.04571 36.1216 7.0661 36.0809 7.10687C36.0401 7.14356 36.0197 7.19452 36.0197 7.25975V9.75478C36.0197 9.82001 36.0401 9.87301 36.0809 9.91378C36.1216 9.95047 36.1746 9.96882 36.2399 9.96882H39.6767V10.7088H36.1115Z" fill="url(#paint0_linear_312_5509)"/>
<path d="M42.4186 10.7088C42.2678 10.7088 42.1312 10.6721 42.0089 10.5987C41.8866 10.5212 41.7867 10.4213 41.7093 10.299C41.6359 10.1767 41.5992 10.0402 41.5992 9.88932V7.98135C41.5992 7.83051 41.6359 7.69393 41.7093 7.57163C41.7867 7.44932 41.8866 7.35148 42.0089 7.27809C42.1312 7.20063 42.2678 7.1619 42.4186 7.1619H44.3817C44.5366 7.1619 44.6752 7.20063 44.7975 7.27809C44.9198 7.35148 45.0176 7.44932 45.091 7.57163C45.1644 7.69393 45.2011 7.83051 45.2011 7.98135V9.30225H42.3269V9.86486C42.3269 9.89747 42.3371 9.92601 42.3575 9.95047C42.382 9.97086 42.4105 9.98105 42.4431 9.98105H45.2011V10.7088H42.4186ZM42.3269 8.63569H44.4734V8.00581C44.4734 7.9732 44.4612 7.9467 44.4367 7.92631C44.4163 7.90185 44.3898 7.88962 44.3572 7.88962H42.4431C42.4105 7.88962 42.382 7.90185 42.3575 7.92631C42.3371 7.9467 42.3269 7.9732 42.3269 8.00581V8.63569Z" fill="url(#paint1_linear_312_5509)"/>
<path d="M47.149 10.7088V7.98135C47.149 7.83051 47.1857 7.69393 47.259 7.57163C47.3365 7.44932 47.4364 7.35148 47.5587 7.27809C47.6851 7.20063 47.8216 7.1619 47.9684 7.1619H49.9436V7.88962H47.9929C47.9603 7.88962 47.9317 7.90185 47.9073 7.92631C47.8869 7.9467 47.8767 7.9732 47.8767 8.00581V10.7088H47.149Z" fill="url(#paint2_linear_312_5509)"/>
<path d="M52.491 10.7088C52.3401 10.7088 52.2015 10.6721 52.0752 10.5987C51.9528 10.5212 51.855 10.4213 51.7816 10.299C51.7082 10.1767 51.6715 10.0402 51.6715 9.88932V6.05504H52.3993V7.1619H53.818V7.88962H52.3993V9.86486C52.3993 9.89747 52.4095 9.92601 52.4298 9.95047C52.4543 9.97086 52.4828 9.98105 52.5155 9.98105H53.818V10.7088H52.491Z" fill="url(#paint3_linear_312_5509)"/>
<path d="M55.6623 10.7088V7.1619H56.3901V10.7088H55.6623ZM55.6623 6.73383V6H56.3901V6.73383H55.6623Z" fill="url(#paint4_linear_312_5509)"/>
<path d="M58.376 10.7088V6.30576H59.1159V8.14035H60.2412L61.7761 6.30576H62.6017V6.48311L60.9016 8.50727L62.6017 10.5314V10.7088H61.7761L60.2412 8.87418H59.1159V10.7088H58.376Z" fill="url(#paint5_linear_312_5509)"/>
<path d="M35.9304 25.8241V15.8172H37.7432V20.4151H37.8653L41.7694 15.8172H43.9828L40.113 20.3076L44.017 25.8241H41.8378L38.8523 21.534L37.7432 22.8435V25.8241H35.9304Z" fill="url(#paint6_linear_312_5509)"/>
<path d="M44.5581 15.8172H46.6054L49.0534 20.2441H49.1511L51.5991 15.8172H53.6464L50.0062 22.091V25.8241H48.1983V22.091L44.5581 15.8172Z" fill="url(#paint7_linear_312_5509)"/>
<path d="M62.9313 19.1936H61.1038C61.0517 18.8939 60.9556 18.6284 60.8156 18.3971C60.6755 18.1626 60.5012 17.9639 60.2927 17.801C60.0843 17.6381 59.8465 17.516 59.5794 17.4345C59.3155 17.3499 59.0305 17.3075 58.7243 17.3075C58.1803 17.3075 57.6982 17.4443 57.278 17.7179C56.8578 17.9883 56.5288 18.3857 56.291 18.9102C56.0532 19.4314 55.9343 20.0682 55.9343 20.8206C55.9343 21.5861 56.0532 22.2311 56.291 22.7556C56.532 23.2767 56.861 23.6709 57.278 23.938C57.6982 24.2019 58.1787 24.3338 58.7194 24.3338C59.0191 24.3338 59.2992 24.2947 59.5598 24.2165C59.8237 24.1351 60.0598 24.0162 60.2683 23.8598C60.48 23.7035 60.6576 23.5113 60.8009 23.2833C60.9475 23.0552 61.0485 22.7946 61.1038 22.5015L62.9313 22.5113C62.8628 22.9868 62.7146 23.4331 62.4866 23.8501C62.2618 24.267 61.9671 24.6351 61.6022 24.9543C61.2374 25.2703 60.8107 25.5179 60.3221 25.697C59.8334 25.8729 59.2911 25.9609 58.695 25.9609C57.8155 25.9609 57.0304 25.7573 56.3398 25.3501C55.6493 24.9429 55.1053 24.355 54.7079 23.5862C54.3105 22.8174 54.1118 21.8956 54.1118 20.8206C54.1118 19.7424 54.3121 18.8206 54.7128 18.0551C55.1134 17.2863 55.659 16.6984 56.3496 16.2912C57.0402 15.884 57.822 15.6804 58.695 15.6804C59.252 15.6804 59.7699 15.7586 60.2488 15.915C60.7276 16.0713 61.1543 16.301 61.5289 16.6039C61.9035 16.9036 62.2114 17.2717 62.4524 17.7082C62.6967 18.1414 62.8563 18.6365 62.9313 19.1936Z" fill="url(#paint8_linear_312_5509)"/>
<path d="M74.7081 19.0128C74.6266 18.7489 74.5143 18.5128 74.3709 18.3043C74.2309 18.0925 74.0615 17.9118 73.8628 17.7619C73.6673 17.6121 73.4426 17.4997 73.1885 17.4248C72.9344 17.3466 72.6575 17.3075 72.3578 17.3075C71.8204 17.3075 71.3415 17.4427 70.9213 17.7131C70.5011 17.9834 70.1705 18.3808 69.9294 18.9053C69.6916 19.4265 69.5727 20.0617 69.5727 20.8109C69.5727 21.5666 69.6916 22.2067 69.9294 22.7311C70.1672 23.2556 70.4979 23.6546 70.9213 23.9282C71.3448 24.1986 71.8367 24.3338 72.3969 24.3338C72.9051 24.3338 73.3448 24.2361 73.7162 24.0406C74.0908 23.8452 74.3791 23.5683 74.581 23.21C74.783 22.8484 74.884 22.4249 74.884 21.9396L75.2944 22.0031H72.5777V20.5861H76.6381V21.7881C76.6381 22.6448 76.4557 23.3859 76.0909 24.0113C75.726 24.6367 75.2244 25.1188 74.5859 25.4576C73.9475 25.7931 73.2146 25.9609 72.3872 25.9609C71.4653 25.9609 70.6558 25.754 69.9588 25.3403C69.2649 24.9234 68.7226 24.3322 68.3317 23.5667C67.944 22.7979 67.7502 21.8858 67.7502 20.8304C67.7502 20.0226 67.8642 19.3011 68.0922 18.6659C68.3235 18.0307 68.646 17.4916 69.0597 17.0485C69.4734 16.6023 69.9587 16.2635 70.5158 16.0322C71.0728 15.7977 71.6787 15.6804 72.3334 15.6804C72.8872 15.6804 73.4035 15.7619 73.8823 15.9247C74.3612 16.0843 74.7863 16.3124 75.1576 16.6088C75.5322 16.9052 75.84 17.257 76.0811 17.6642C76.3221 18.0714 76.4801 18.5209 76.555 19.0128H74.7081Z" fill="url(#paint9_linear_312_5509)"/>
<path d="M81.5866 25.9706C80.8536 25.9706 80.2184 25.8094 79.681 25.4869C79.1435 25.1644 78.7265 24.7133 78.4301 24.1334C78.1369 23.5536 77.9903 22.8761 77.9903 22.1008C77.9903 21.3255 78.1369 20.6464 78.4301 20.0633C78.7265 19.4802 79.1435 19.0274 79.681 18.7049C80.2184 18.3825 80.8536 18.2212 81.5866 18.2212C82.3195 18.2212 82.9547 18.3825 83.4921 18.7049C84.0296 19.0274 84.4449 19.4802 84.7381 20.0633C85.0345 20.6464 85.1828 21.3255 85.1828 22.1008C85.1828 22.8761 85.0345 23.5536 84.7381 24.1334C84.4449 24.7133 84.0296 25.1644 83.4921 25.4869C82.9547 25.8094 82.3195 25.9706 81.5866 25.9706ZM81.5963 24.5537C81.9937 24.5537 82.326 24.4445 82.5931 24.2263C82.8602 24.0048 83.0589 23.7084 83.1892 23.337C83.3228 22.9657 83.3895 22.552 83.3895 22.0959C83.3895 21.6366 83.3228 21.2213 83.1892 20.85C83.0589 20.4754 82.8602 20.1773 82.5931 19.9558C82.326 19.7343 81.9937 19.6235 81.5963 19.6235C81.1891 19.6235 80.8504 19.7343 80.58 19.9558C80.3129 20.1773 80.1126 20.4754 79.979 20.85C79.8487 21.2213 79.7836 21.6366 79.7836 22.0959C79.7836 22.552 79.8487 22.9657 79.979 23.337C80.1126 23.7084 80.3129 24.0048 80.58 24.2263C80.8504 24.4445 81.1891 24.5537 81.5963 24.5537Z" fill="url(#paint10_linear_312_5509)"/>
<path d="M88.4528 15.8172V25.8241H86.684V15.8172H88.4528Z" fill="url(#paint11_linear_312_5509)"/>
<path d="M93.0568 25.956C92.4672 25.956 91.9395 25.8045 91.4737 25.5016C91.0079 25.1986 90.6398 24.7589 90.3694 24.1823C90.099 23.6057 89.9638 22.9054 89.9638 22.0813C89.9638 21.2474 90.1007 20.5438 90.3743 19.9705C90.6512 19.3939 91.0241 18.959 91.4932 18.6659C91.9623 18.3694 92.4851 18.2212 93.0617 18.2212C93.5014 18.2212 93.863 18.2961 94.1464 18.446C94.4298 18.5926 94.6545 18.7701 94.8207 18.9786C94.9868 19.1838 95.1155 19.3776 95.2067 19.56H95.28V15.8172H97.0536V25.8241H95.3142V24.6416H95.2067C95.1155 24.824 94.9835 25.0178 94.8109 25.2231C94.6383 25.425 94.4102 25.5977 94.1268 25.741C93.8434 25.8843 93.4868 25.956 93.0568 25.956ZM93.5503 24.5048C93.9249 24.5048 94.2441 24.4038 94.508 24.2019C94.7718 23.9966 94.9721 23.7116 95.109 23.3468C95.2458 22.9819 95.3142 22.5569 95.3142 22.0715C95.3142 21.5861 95.2458 21.1643 95.109 20.806C94.9754 20.4477 94.7767 20.1692 94.5128 19.9705C94.2523 19.7718 93.9314 19.6724 93.5503 19.6724C93.1561 19.6724 92.8271 19.775 92.5633 19.9802C92.2994 20.1854 92.1007 20.4688 91.9672 20.8304C91.8336 21.192 91.7668 21.6057 91.7668 22.0715C91.7668 22.5406 91.8336 22.9591 91.9672 23.3272C92.104 23.6921 92.3043 23.9803 92.5682 24.1921C92.8353 24.4006 93.1626 24.5048 93.5503 24.5048Z" fill="url(#paint12_linear_312_5509)"/>
<path d="M26.2835 11.0635H7.60325C7.2388 11.0635 6.94336 11.3589 6.94336 11.7234V23.8841C6.94336 24.2486 7.2388 24.544 7.60325 24.544H26.2835C26.6479 24.544 26.9434 24.2486 26.9434 23.8841V11.7234C26.9434 11.3589 26.6479 11.0635 26.2835 11.0635Z" fill="url(#paint13_linear_312_5509)"/>
<path opacity="0.8" d="M17.7249 18.2377V19.2052C17.7249 19.2929 17.7959 19.364 17.8836 19.364H24.8645C24.9522 19.364 25.0233 19.2929 25.0233 19.2052V18.2377C25.0233 18.1501 24.9522 18.079 24.8645 18.079H17.8836C17.7959 18.079 17.7249 18.1501 17.7249 18.2377Z" fill="#5D5E64"/>
<path opacity="0.8" d="M16.0527 21.2346V22.2021C16.0527 22.2898 16.1238 22.3608 16.2115 22.3608H24.8347C24.9224 22.3608 24.9934 22.2898 24.9934 22.2021V21.2346C24.9934 21.1469 24.9224 21.0758 24.8347 21.0758H16.2115C16.1238 21.0758 16.0527 21.1469 16.0527 21.2346Z" fill="#5D5E64"/>
<path opacity="0.8" d="M19.4712 15.246V16.2135C19.4712 16.3012 19.5423 16.3723 19.63 16.3723H24.909C24.9967 16.3723 25.0678 16.3012 25.0678 16.2135V15.246C25.0678 15.1584 24.9967 15.0873 24.909 15.0873H19.63C19.5423 15.0873 19.4712 15.1584 19.4712 15.246Z" fill="#5D5E64"/>
<path opacity="0.45" d="M7.60821 11.0635H26.2785C26.6457 11.0635 26.9434 11.3612 26.9434 11.7283V13.1076H6.94336V11.7283C6.94336 11.3612 7.24105 11.0635 7.60821 11.0635V11.0635Z" fill="#555D64"/>
<path opacity="0.9" d="M16.4001 15.0872V15.8364H15.9436L11.5328 22.3608H9.36461L9.34972 15.7967H8.67992L8.65015 15.0872H11.3343V18.719L13.3487 15.7322V15.0872H16.4001Z" fill="#171921"/>
<path fill-rule="evenodd" clip-rule="evenodd" d="M24.2146 9.46076H9.6773C9.33992 9.46076 9.13649 9.12338 9.32999 8.87034L10.2826 7.62003C10.362 7.51584 10.491 7.4563 10.6299 7.4563H23.2372C23.3761 7.4563 23.5051 7.51584 23.5845 7.62003L24.557 8.87034C24.7505 9.11842 24.552 9.46076 24.2097 9.46076H24.2146Z" fill="#E5453D"/>
<defs>
<linearGradient id="paint0_linear_312_5509" x1="30.0872" y1="5.59021" x2="38.6518" y2="25.7293" gradientUnits="userSpaceOnUse">
<stop offset="0.00726675" stop-color="#7D571B"/>
<stop offset="0.0982138" stop-color="#AE8035"/>
<stop offset="0.38988" stop-color="#EBD25B"/>
<stop offset="0.494047" stop-color="#F4EB85"/>
<stop offset="0.624255" stop-color="#FEDC39"/>
<stop offset="1" stop-color="#B18433"/>
</linearGradient>
<linearGradient id="paint1_linear_312_5509" x1="30.0872" y1="5.59021" x2="38.6518" y2="25.7293" gradientUnits="userSpaceOnUse">
<stop offset="0.00726675" stop-color="#7D571B"/>
<stop offset="0.0982138" stop-color="#AE8035"/>
<stop offset="0.38988" stop-color="#EBD25B"/>
<stop offset="0.494047" stop-color="#F4EB85"/>
<stop offset="0.624255" stop-color="#FEDC39"/>
<stop offset="1" stop-color="#B18433"/>
</linearGradient>
<linearGradient id="paint2_linear_312_5509" x1="30.0872" y1="5.59021" x2="38.6518" y2="25.7293" gradientUnits="userSpaceOnUse">
<stop offset="0.00726675" stop-color="#7D571B"/>
<stop offset="0.0982138" stop-color="#AE8035"/>
<stop offset="0.38988" stop-color="#EBD25B"/>
<stop offset="0.494047" stop-color="#F4EB85"/>
<stop offset="0.624255" stop-color="#FEDC39"/>
<stop offset="1" stop-color="#B18433"/>
</linearGradient>
<linearGradient id="paint3_linear_312_5509" x1="30.0872" y1="5.59021" x2="38.6518" y2="25.7293" gradientUnits="userSpaceOnUse">
<stop offset="0.00726675" stop-color="#7D571B"/>
<stop offset="0.0982138" stop-color="#AE8035"/>
<stop offset="0.38988" stop-color="#EBD25B"/>
<stop offset="0.494047" stop-color="#F4EB85"/>
<stop offset="0.624255" stop-color="#FEDC39"/>
<stop offset="1" stop-color="#B18433"/>
</linearGradient>
<linearGradient id="paint4_linear_312_5509" x1="30.0872" y1="5.59021" x2="38.6518" y2="25.7293" gradientUnits="userSpaceOnUse">
<stop offset="0.00726675" stop-color="#7D571B"/>
<stop offset="0.0982138" stop-color="#AE8035"/>
<stop offset="0.38988" stop-color="#EBD25B"/>
<stop offset="0.494047" stop-color="#F4EB85"/>
<stop offset="0.624255" stop-color="#FEDC39"/>
<stop offset="1" stop-color="#B18433"/>
</linearGradient>
<linearGradient id="paint5_linear_312_5509" x1="30.0872" y1="5.59021" x2="38.6518" y2="25.7293" gradientUnits="userSpaceOnUse">
<stop offset="0.00726675" stop-color="#7D571B"/>
<stop offset="0.0982138" stop-color="#AE8035"/>
<stop offset="0.38988" stop-color="#EBD25B"/>
<stop offset="0.494047" stop-color="#F4EB85"/>
<stop offset="0.624255" stop-color="#FEDC39"/>
<stop offset="1" stop-color="#B18433"/>
</linearGradient>
<linearGradient id="paint6_linear_312_5509" x1="24.2976" y1="14.7849" x2="42.7068" y2="59.1092" gradientUnits="userSpaceOnUse">
<stop offset="0.00726675" stop-color="#7D571B"/>
<stop offset="0.0982138" stop-color="#AE8035"/>
<stop offset="0.38988" stop-color="#EBD25B"/>
<stop offset="0.494047" stop-color="#F4EB85"/>
<stop offset="0.624255" stop-color="#FEDC39"/>
<stop offset="1" stop-color="#B18433"/>
</linearGradient>
<linearGradient id="paint7_linear_312_5509" x1="24.2976" y1="14.7849" x2="42.7068" y2="59.1092" gradientUnits="userSpaceOnUse">
<stop offset="0.00726675" stop-color="#7D571B"/>
<stop offset="0.0982138" stop-color="#AE8035"/>
<stop offset="0.38988" stop-color="#EBD25B"/>
<stop offset="0.494047" stop-color="#F4EB85"/>
<stop offset="0.624255" stop-color="#FEDC39"/>
<stop offset="1" stop-color="#B18433"/>
</linearGradient>
<linearGradient id="paint8_linear_312_5509" x1="24.2976" y1="14.7849" x2="42.7068" y2="59.1092" gradientUnits="userSpaceOnUse">
<stop offset="0.00726675" stop-color="#7D571B"/>
<stop offset="0.0982138" stop-color="#AE8035"/>
<stop offset="0.38988" stop-color="#EBD25B"/>
<stop offset="0.494047" stop-color="#F4EB85"/>
<stop offset="0.624255" stop-color="#FEDC39"/>
<stop offset="1" stop-color="#B18433"/>
</linearGradient>
<linearGradient id="paint9_linear_312_5509" x1="24.2976" y1="14.7849" x2="42.7068" y2="59.1092" gradientUnits="userSpaceOnUse">
<stop offset="0.00726675" stop-color="#7D571B"/>
<stop offset="0.0982138" stop-color="#AE8035"/>
<stop offset="0.38988" stop-color="#EBD25B"/>
<stop offset="0.494047" stop-color="#F4EB85"/>
<stop offset="0.624255" stop-color="#FEDC39"/>
<stop offset="1" stop-color="#B18433"/>
</linearGradient>
<linearGradient id="paint10_linear_312_5509" x1="24.2976" y1="14.7849" x2="42.7068" y2="59.1092" gradientUnits="userSpaceOnUse">
<stop offset="0.00726675" stop-color="#7D571B"/>
<stop offset="0.0982138" stop-color="#AE8035"/>
<stop offset="0.38988" stop-color="#EBD25B"/>
<stop offset="0.494047" stop-color="#F4EB85"/>
<stop offset="0.624255" stop-color="#FEDC39"/>
<stop offset="1" stop-color="#B18433"/>
</linearGradient>
<linearGradient id="paint11_linear_312_5509" x1="24.2976" y1="14.7849" x2="42.7068" y2="59.1092" gradientUnits="userSpaceOnUse">
<stop offset="0.00726675" stop-color="#7D571B"/>
<stop offset="0.0982138" stop-color="#AE8035"/>
<stop offset="0.38988" stop-color="#EBD25B"/>
<stop offset="0.494047" stop-color="#F4EB85"/>
<stop offset="0.624255" stop-color="#FEDC39"/>
<stop offset="1" stop-color="#B18433"/>
</linearGradient>
<linearGradient id="paint12_linear_312_5509" x1="24.2976" y1="14.7849" x2="42.7068" y2="59.1092" gradientUnits="userSpaceOnUse">
<stop offset="0.00726675" stop-color="#7D571B"/>
<stop offset="0.0982138" stop-color="#AE8035"/>
<stop offset="0.38988" stop-color="#EBD25B"/>
<stop offset="0.494047" stop-color="#F4EB85"/>
<stop offset="0.624255" stop-color="#FEDC39"/>
<stop offset="1" stop-color="#B18433"/>
</linearGradient>
<linearGradient id="paint13_linear_312_5509" x1="3.13702" y1="9.89031" x2="33.2059" y2="27.9732" gradientUnits="userSpaceOnUse">
<stop offset="0.00726675" stop-color="#7D571B"/>
<stop offset="0.0982138" stop-color="#AE8035"/>
<stop offset="0.38988" stop-color="#EBD25B"/>
<stop offset="0.494047" stop-color="#F4EB85"/>
<stop offset="0.624255" stop-color="#FEDC39"/>
<stop offset="1" stop-color="#B18433"/>
</linearGradient>
</defs>
</svg>
