<svg width="121" height="33" viewBox="0 0 121 33" fill="none" xmlns="http://www.w3.org/2000/svg">
<g clip-path="url(#clip0_5602_4)">
<path fill-rule="evenodd" clip-rule="evenodd" d="M17.5 3H21.5V7H17.5V3ZM3.60671 9.41255H-0.5V30H3.81923V22.7544H3.88021C4.40733 23.501 5.0865 24.0702 5.91825 24.4629C6.74949 24.8552 7.64145 25.0519 8.59517 25.0519C9.7509 25.0519 10.7594 24.8309 11.6217 24.3891C12.4834 23.9473 13.2036 23.3632 13.7815 22.6366C14.3594 21.9106 14.7899 21.0756 15.0744 20.1334C15.3582 19.191 15.5 18.2093 15.5 17.188C15.5 16.1084 15.3582 15.0725 15.0744 14.0807C14.7899 13.0896 14.3538 12.2206 13.7663 11.4741C13.1782 10.7283 12.4375 10.1295 11.5456 9.67762C10.6534 9.22629 9.5884 9 8.35149 9C7.3784 9 6.48567 9.18701 5.67537 9.56004C4.8635 9.93306 4.19427 10.5319 3.66769 11.3565H3.60671V9.41255ZM9.21913 21.4873C8.74226 21.7628 8.1492 21.8999 7.43967 21.8999C6.72961 21.8999 6.13655 21.7628 5.6602 21.4873C5.1836 21.2127 4.79809 20.8543 4.50391 20.4127C4.20973 19.9707 3.99721 19.4603 3.86505 18.8811C3.73314 18.3022 3.66797 17.6984 3.66797 17.0696C3.66797 16.4615 3.72869 15.8575 3.84987 15.2582C3.97183 14.6594 4.17937 14.1344 4.47354 13.6825C4.76773 13.2312 5.15299 12.863 5.62985 12.5782C6.10618 12.2938 6.69925 12.1512 7.40931 12.1512C8.09842 12.1512 8.68128 12.2938 9.15814 12.5782C9.6342 12.863 10.0252 13.2363 10.3291 13.6972C10.6335 14.1589 10.851 14.684 10.9831 15.273C11.1148 15.8622 11.181 16.4615 11.181 17.0696C11.181 17.6984 11.12 18.3022 10.9983 18.8811C10.8766 19.4603 10.6688 19.9707 10.3749 20.4127C10.0807 20.8543 9.6952 21.2127 9.21913 21.4873ZM17.5 9H21.5V25H17.5V9ZM75.5 3H79.5V7H75.5V3ZM75.5 9H79.5V25H75.5V9ZM23.5541 9L28.6284 16.3009L23.0767 24.4064H27.8229L31.0465 19.5489L34.2697 24.4064H39.1056L28.39 9H23.5541ZM43.6287 18.0129C43.687 19.3441 44.0257 20.3176 44.6462 20.9339C45.2668 21.5505 46.1585 21.8587 47.3215 21.8587C48.1552 21.8587 48.8721 21.6488 49.4736 21.2277C50.0736 20.8068 50.442 20.3615 50.5784 19.8918H54.2127C53.6313 21.6927 52.7396 22.9938 51.5376 23.7963C50.3355 24.5986 48.8814 25 47.1759 25C45.9939 25 44.9273 24.8043 43.9779 24.4129C43.028 24.0217 42.2232 23.4735 41.5642 22.7688C40.9053 22.0643 40.3963 21.2229 40.0379 20.2441C39.6788 19.2655 39.5 18.1893 39.5 17.0149C39.5 15.88 39.6841 14.8231 40.0524 13.844C40.4204 12.8657 40.9435 12.0193 41.6222 11.3047C42.3009 10.5903 43.1101 10.0276 44.0502 9.61634C44.9904 9.20561 46.0322 9 47.1759 9C48.4554 9 49.5701 9.24982 50.52 9.7487C51.4695 10.2476 52.2501 10.9185 52.8608 11.7599C53.4711 12.6015 53.9119 13.5606 54.1837 14.6367C54.4549 15.7133 54.5517 16.8386 54.4741 18.0129H43.6287ZM50.3452 15.3703C50.1513 14.3132 49.8073 13.5112 49.3131 12.9631C48.8189 12.4152 48.0675 12.1409 47.0598 12.1409C46.4003 12.1409 45.8527 12.2538 45.4167 12.4786C44.9806 12.7039 44.6313 12.9828 44.3701 13.3152C44.1082 13.6484 43.9237 14.0008 43.8178 14.3721C43.7107 14.7441 43.6477 15.0768 43.6284 15.3703H50.3452ZM86.6461 20.9339C86.0257 20.3176 85.687 19.3441 85.6287 18.0129H96.4741C96.5517 16.8386 96.4549 15.7133 96.1837 14.6367C95.9119 13.5606 95.4711 12.6015 94.8608 11.7599C94.2501 10.9185 93.4695 10.2476 92.52 9.7487C91.5701 9.24982 90.4554 9 89.1759 9C88.0322 9 86.9904 9.20561 86.0502 9.61634C85.1101 10.0276 84.3009 10.5903 83.6222 11.3047C82.9435 12.0193 82.4204 12.8657 82.0524 13.844C81.6841 14.8231 81.5 15.88 81.5 17.0149C81.5 18.1893 81.6788 19.2655 82.0379 20.2441C82.3963 21.2229 82.9053 22.0643 83.5642 22.7688C84.2232 23.4735 85.028 24.0217 85.9779 24.4129C86.9273 24.8043 87.9939 25 89.1759 25C90.8814 25 92.3355 24.5986 93.5376 23.7963C94.7396 22.9938 95.6313 21.6927 96.2127 19.8918H92.5784C92.442 20.3615 92.0736 20.8068 91.4736 21.2277C90.8721 21.6488 90.1552 21.8587 89.3215 21.8587C88.1585 21.8587 87.2668 21.5505 86.6461 20.9339ZM91.3131 12.9631C91.8073 13.5112 92.1513 14.3132 92.3452 15.3703H85.6284C85.6477 15.0768 85.7107 14.7441 85.8178 14.3721C85.9237 14.0008 86.1082 13.6484 86.3701 13.3152C86.6313 12.9828 86.9806 12.7039 87.4167 12.4786C87.8527 12.2538 88.4003 12.1409 89.0598 12.1409C90.0675 12.1409 90.8189 12.4152 91.3131 12.9631ZM56.5 3H60.5V25H56.5V3ZM102.5 3H98.5V25H102.5V3ZM62.5 12.5883H65.0526V25H69.3167V12.5883H72.2595V9.79416H69.3167V8.89225C69.3167 8.27198 69.4418 7.83139 69.6919 7.56922C69.9421 7.3073 70.3576 7.17646 70.9381 7.17646C71.4588 7.17646 71.9794 7.20582 72.5 7.26454V4.11742C72.1399 4.09844 71.769 4.07364 71.389 4.04429C71.0083 4.01468 70.628 4 70.2474 4C69.3666 4 68.6056 4.11312 67.9654 4.33835C67.3246 4.56383 66.784 4.88244 66.344 5.29417C65.9032 5.70566 65.5782 6.19635 65.3676 6.76473C65.1578 7.33362 65.0526 7.95109 65.0526 8.61767V9.79416H62.5V12.5883ZM116.333 22.5824H116.394V24.5769H120.5V3H116.181V10.8571H116.12C115.634 10.0919 114.969 9.51229 114.128 9.11968C113.286 8.72679 112.399 8.53022 111.466 8.53022C110.31 8.53022 109.296 8.75695 108.424 9.21016C107.552 9.66362 106.828 10.263 106.249 11.0084C105.671 11.7539 105.235 12.615 104.942 13.5922C104.647 14.5696 104.5 15.582 104.5 16.6291C104.5 17.7172 104.647 18.7647 104.942 19.7719C105.235 20.7794 105.671 21.6713 106.249 22.4464C106.828 23.222 107.557 23.8417 108.439 24.305C109.322 24.7681 110.361 25 111.557 25C112.571 25 113.494 24.8084 114.326 24.4256C115.157 24.0434 115.826 23.4287 116.333 22.5824ZM116.151 14.877C116.272 15.4818 116.333 16.0965 116.333 16.7207C116.333 17.3656 116.272 17.9899 116.151 18.5944C116.029 19.1987 115.826 19.7379 115.542 20.2112C115.258 20.6844 114.878 21.0622 114.402 21.3444C113.925 21.6267 113.332 21.7674 112.622 21.7674C111.953 21.7674 111.379 21.6212 110.903 21.329C110.426 21.0375 110.031 20.6545 109.717 20.1808C109.402 19.7078 109.174 19.1685 109.032 18.564C108.89 17.9598 108.819 17.3555 108.819 16.7509C108.819 16.1064 108.885 15.487 109.017 14.8924C109.149 14.2985 109.362 13.7694 109.656 13.3058C109.95 12.8427 110.34 12.4701 110.827 12.1877C111.314 11.9058 111.912 11.7647 112.622 11.7647C113.311 11.7647 113.894 11.9058 114.371 12.1877C114.847 12.4701 115.233 12.8375 115.527 13.2907C115.821 13.7441 116.029 14.2727 116.151 14.877ZM38.5 9H34.5V13H38.5V9Z" fill="black"/>
</g>
<defs>
<clipPath id="clip0_5602_4">
<rect width="121" height="33" fill="white"/>
</clipPath>
</defs>
</svg>
