<svg width="146" height="36" viewBox="0 0 146 36" fill="none" xmlns="http://www.w3.org/2000/svg">
<path d="M42.386 23.468L33.0703 7.30878C31.028 3.94079 26.0477 3.90496 24.077 7.4521L14.2955 24.2562C12.4682 27.3376 14.7255 31.2072 18.3801 31.2072H37.979C41.6694 31.2072 44.4283 27.2301 42.386 23.468Z" fill="#3156AA"/>
<path d="M28.9507 24.7236L28.3774 23.7204C27.84 22.7888 26.6576 20.7823 26.6576 20.7823L18.7751 7.09534C16.7328 4.04982 11.8957 3.79901 9.85345 7.63279L0.681033 23.5054C-1.21794 26.8375 1.03933 31.1729 5.15975 31.2088H24.6511H32.9636H37.9081C32.8561 31.2446 31.2438 28.629 28.9507 24.7236Z" fill="#1972E2"/>
<path d="M28.9506 24.7229L28.3773 23.7197C27.8398 22.7881 26.6575 20.7817 26.6575 20.7817L21.5696 11.8242L14.2604 24.293C12.4331 27.3743 14.6903 31.2439 18.345 31.2439H24.6152H32.9277H37.908C32.8202 31.2081 31.2437 28.6284 28.9506 24.7229Z" fill="url(#paint0_linear_5603_7)"/>
<path d="M124.363 18.8036C124.405 25.0975 129.524 30.0486 135.818 29.9647C139.72 29.9647 142.741 28.622 145.007 25.9786L143.58 24.7618C142.657 24.0066 141.356 23.9646 140.433 24.6779C139.174 25.601 137.622 26.1045 135.776 26.1045C131.412 26.1045 128.685 23.2932 128.685 18.7197C128.685 14.1881 131.328 11.5027 135.776 11.5027C137.58 11.5027 139.174 11.9643 140.433 12.9293C141.398 13.6426 142.699 13.6007 143.58 12.8454L145.007 11.6286C142.741 8.94323 139.594 7.55859 135.608 7.55859C132.209 7.55859 129.356 8.60756 127.384 10.5377C125.412 12.5098 124.363 15.363 124.363 18.8036Z" fill="#151617"/>
<path d="M65.4912 27.4034L71.4494 16.9976V29.6692H75.9809V7.80859H73.1697C72.2886 7.80859 71.4494 8.27014 71.0298 9.06736L63.8967 22.0746L56.7637 9.06736C56.3441 8.27014 55.5049 7.80859 54.6238 7.80859H51.8125V29.6692H56.3441V16.9976L62.3023 27.4034H65.4912Z" fill="#151617"/>
<path d="M79.7148 7.85156V29.7122L97.8831 29.6703V28.2856C97.8831 27.1947 97.0019 26.3135 95.911 26.3135H84.2464V20.4393H95.911V17.0826H84.2464V11.2083H95.911C97.0019 11.2083 97.8831 10.3272 97.8831 9.23621V7.85156H79.7148Z" fill="#151617"/>
<path d="M119.704 7.85156H123.983L115.34 18.8448L124.025 29.7542H119.746C118.948 29.7542 118.235 29.3765 117.731 28.7891L112.529 22.2855L107.368 28.7472C106.864 29.3765 106.151 29.7122 105.354 29.7122H101.074L109.759 18.8029L101.074 7.89352H105.354C106.151 7.89352 106.864 8.2292 107.368 8.85858L112.529 15.3203L117.69 8.81662C118.193 8.18724 118.906 7.85156 119.704 7.85156Z" fill="#151617"/>
<defs>
<linearGradient id="paint0_linear_5603_7" x1="11.659" y1="18.6276" x2="34.3027" y2="26.9952" gradientUnits="userSpaceOnUse">
<stop stop-color="#264CA2" stop-opacity="0"/>
<stop offset="1" stop-color="#234588"/>
</linearGradient>
</defs>
</svg>
