<svg width="120" height="34" viewBox="0 0 120 34" fill="none" xmlns="http://www.w3.org/2000/svg">
<g clip-path="url(#clip0_5602_2)">
<path fill-rule="evenodd" clip-rule="evenodd" d="M19.8714 16.1981L19.8321 16.1682C20.7074 14.9079 21.1451 13.3751 21.1451 11.5696C21.1451 8.89156 20.226 6.79322 18.3878 5.27462C16.5495 3.75602 14.0198 2.99781 10.7985 3H2.77597V4.12171H10.6541C13.3917 4.12171 15.8339 4.73101 17.3833 5.99396C18.8243 7.16986 19.3528 8.18154 19.7746 9.69577C19.3463 8.31457 18.3369 7.42607 17.7099 6.90381C16.6119 5.98083 15.248 5.33539 11.5322 5.33539H5.34457V6.42918H11.3943C14.5652 6.42918 15.7289 6.82004 16.7957 7.61C18.1613 8.62167 19.0082 9.83043 19.0082 11.5746C19.0082 13.1463 18.4567 13.9872 17.531 14.8592C17.4227 14.8165 17.3144 14.7755 17.2028 14.7361L17.3078 14.6802C18.3106 14.1268 19.0049 13.0642 19.0049 11.5696C19.0049 9.93717 18.0694 8.91731 17.1535 8.34249C16.2952 7.80381 15.4778 7.4425 11.9901 7.4425H7.54224V8.17168H11.8653C15.0133 8.17168 16.2065 8.73172 16.5676 8.95343C17.275 9.38701 18.2089 10.1392 18.2089 11.5812C18.2089 12.5009 17.6656 13.6078 16.863 14.0594C16.6024 14.2038 16.3273 14.3205 16.0424 14.4076C14.8476 14.1367 13.6254 14.0055 12.4004 14.0167H7.03509V15.1384H12.2527C14.9903 15.1384 17.4686 15.7017 18.9819 17.0107C20.1242 17.9826 20.9553 19.2694 21.3716 20.7108C20.9449 19.3296 20.0684 18.4921 19.3085 17.9189C18.1596 17.0501 16.8466 16.3488 13.1308 16.3505H4.71925V17.4442H12.9929C16.1638 17.4442 17.3259 17.8351 18.3943 18.6251C19.7599 19.6368 20.5936 20.8455 20.5936 22.5897C20.5936 24.2714 19.7467 25.4982 18.3746 26.5099C16.9713 27.5446 14.8262 27.5758 13.9531 27.5758H9.35749V28.6679H12.7927C15.6682 28.6679 17.5885 28.4216 19.2511 27.1898C20.8103 26.0303 21.6391 24.5309 21.6391 22.5913C21.6543 23.6307 21.431 24.6597 20.9866 25.5992C20.5422 26.5387 19.8884 27.3638 19.0755 28.011C17.5015 29.3117 14.6933 29.8849 11.8834 29.8849H2.83834V31H11.9474C15.3394 31 17.9867 30.2632 19.8895 28.7894C21.7923 27.3157 22.7448 25.2453 22.747 22.5782C22.7404 19.8968 21.8175 17.7979 19.9782 16.2815C19.9432 16.2526 19.9074 16.2254 19.8714 16.1981ZM20.0334 11.7126C20.0301 13.0673 19.6228 14.3914 18.8621 15.5145C18.7653 15.4587 18.6668 15.4045 18.5683 15.3503C19.5033 14.3677 20.0263 13.0659 20.0334 11.7126ZM14.3944 21.0064H6.50977V21.617H14.3944V21.0064ZM9.7612 23.2285H14.3469V23.7521H9.7612V23.2285ZM5.16414 21.0064H2.82861V21.617H5.16414V21.0064ZM1.37256 23.1858H8.46613V23.7963H1.37256V23.1858ZM8.0476 27.8467H1.37256V28.5787H8.0476V27.8467ZM3.12061 7.61331H5.8845V8.11719H3.12061V7.61331ZM7.52571 11.6206H1.19531V12.2066H7.52571V11.6206ZM3.88037 9.83043H14.3616V10.4164H3.88037V9.83043ZM14.1631 11.6206H9.12109V12.2066H14.1631V11.6206ZM20.5838 22.5799C20.5838 23.9907 19.9026 25.0467 18.8982 25.5804C17.897 26.1109 16.479 26.4164 14.0811 26.4164H-0.5V25.7217H14.0154C16.2278 25.7217 17.7148 25.3653 18.4468 24.9678C19.2511 24.5293 19.7943 23.4635 19.7943 22.5766C19.7943 21.1888 18.8605 20.458 18.1531 20.0392C17.792 19.8257 16.5971 19.2854 13.4508 19.2854H7.91316V18.5907H13.5805C17.1322 18.5907 17.8855 18.9405 18.7456 19.4595C19.6614 20.0162 20.5838 21.0049 20.5838 22.5799ZM48.7596 10.218C48.3453 10.2294 47.9396 10.0978 47.6107 9.8452C47.4624 9.73755 47.342 9.59597 47.2595 9.43227C47.1769 9.26857 47.1348 9.08749 47.1364 8.90415C47.1348 8.71989 47.1769 8.53788 47.2594 8.37312C47.3419 8.20836 47.4623 8.06557 47.6107 7.95652C47.9377 7.69987 48.3443 7.5662 48.7596 7.5788C49.1815 7.56616 49.5949 7.69957 49.9299 7.95652C50.0799 8.06271 50.2023 8.20339 50.2868 8.3667C50.3712 8.53002 50.4153 8.71123 50.4153 8.89513C50.4153 9.07902 50.3712 9.26023 50.2868 9.42355C50.2023 9.58687 50.0799 9.72752 49.9299 9.83371C49.5963 10.0941 49.1825 10.23 48.7596 10.218ZM49.984 26.1256H47.4745V13.4386H49.984V26.1256ZM31.1045 26.1256V8.3589H37.3413C39.2375 8.3589 40.7415 8.73445 41.8532 9.48554C42.9649 10.2366 43.5207 11.2155 43.5207 12.422C43.5342 13.3952 43.1727 14.3361 42.5113 15.0497C41.8384 15.7943 40.9084 16.3231 39.7212 16.6362V16.6855C41.1994 16.8256 42.3822 17.2778 43.2696 18.042C43.7019 18.4058 44.0462 18.8629 44.2767 19.3788C44.5072 19.8948 44.618 20.4563 44.6007 21.0212C44.6007 22.542 43.9277 23.7727 42.5819 24.7132C41.2361 25.6537 39.5401 26.1245 37.494 26.1256H31.1045ZM33.6747 10.2427V15.9793H36.3007C37.7079 15.9793 38.8141 15.7056 39.6194 15.1581C40.005 14.9089 40.3192 14.5636 40.5312 14.1562C40.7433 13.7488 40.8459 13.2933 40.829 12.8342C40.829 11.1087 39.4268 10.2459 36.6225 10.2459L33.6747 10.2427ZM33.6747 17.8499V24.2435H37.1624C38.6713 24.2435 39.8415 23.9544 40.6731 23.3763C41.0672 23.1197 41.3889 22.7661 41.6074 22.3495C41.8258 21.9328 41.9336 21.4669 41.9205 20.9966C41.9205 18.8999 40.1561 17.851 36.6274 17.8499H33.6747ZM58.7352 26.3983C59.7047 26.3994 60.4848 26.2674 61.0757 26.0025L61.0806 24.2682C60.5836 24.5592 60.015 24.7049 59.4393 24.6886C58.6121 24.6886 58.0202 24.5069 57.6635 24.1434C57.3068 23.7799 57.1284 23.1728 57.1284 22.322V15.173H61.0757V13.4387H57.1284V9.68434L54.6206 10.3413V13.4387H51.9272V15.173H54.6206V22.6817C54.6195 25.1594 55.991 26.3983 58.7352 26.3983ZM83.8613 26.1256H81.5111V15.1615C81.5227 14.099 81.5884 13.0377 81.708 11.9819H81.6522C81.502 12.528 81.2992 13.0582 81.0466 13.5651L74.1532 26.1256H73.0043L66.1225 13.6571C65.8622 13.1216 65.6591 12.5601 65.5168 11.9819H65.461C65.5532 13.0468 65.591 14.1157 65.5743 15.1844V26.1256H63.2798V9.7812H66.3982L72.5907 21.1789C72.9547 21.8054 73.2654 22.4614 73.5197 23.1399H73.605C74.0077 22.2432 74.331 21.5747 74.575 21.1346L80.8939 9.7812H83.8482L83.8613 26.1256ZM96.6062 26.1256H99.1157V17.8746C99.1146 14.7191 97.2736 13.1414 93.5928 13.1414C91.5828 13.1414 89.808 13.5377 88.2685 14.3304V16.4129C89.7703 15.3771 91.5555 14.8316 93.3794 14.8511C95.5306 14.8521 96.6062 15.9301 96.6062 18.0848L91.9105 18.6185C88.4627 19.0061 86.7388 20.3851 86.7388 22.7556C86.7256 23.2739 86.8392 23.7875 87.0697 24.2518C87.3003 24.7161 87.6409 25.117 88.0617 25.4194C88.9447 26.0884 90.1664 26.4229 91.7267 26.4229C93.845 26.424 95.4513 25.6641 96.5454 24.1433H96.6062V26.1256ZM92.8312 20.1295L96.6062 19.709L96.616 20.972C96.6271 21.4816 96.5236 21.9873 96.313 22.4515C96.1025 22.9157 95.7904 23.3267 95.3998 23.6539C94.589 24.3601 93.5616 24.7132 92.3175 24.7132C91.4115 24.7132 90.685 24.5172 90.1379 24.1253C89.8846 23.9618 89.6767 23.737 89.5332 23.4717C89.3898 23.2065 89.3155 22.9093 89.3173 22.6077C89.3227 21.7559 89.6187 21.163 90.2052 20.8291C90.7917 20.4952 91.667 20.262 92.8312 20.1295ZM110.758 15.4948C110.321 15.2222 109.688 15.0859 108.861 15.0859C108.351 15.0776 107.845 15.1834 107.38 15.3956C106.916 15.6079 106.504 15.9212 106.176 16.3127C105.457 17.1305 105.098 18.2457 105.098 19.6581V26.1256H102.59V13.4386H105.098V16.0548H105.16C105.481 15.2076 106.054 14.4791 106.801 13.9674C107.526 13.4706 108.385 13.2085 109.263 13.2169C109.769 13.1988 110.274 13.2575 110.762 13.391V13.4387H113.04V10.3413L115.548 9.68434V13.4387H119.487V15.173H115.548V22.322C115.548 23.1728 115.726 23.7799 116.083 24.1434C116.44 24.5069 117.032 24.6886 117.859 24.6886C118.434 24.7049 119.003 24.5592 119.5 24.2682L119.495 26.0025C118.904 26.2674 118.124 26.3994 117.155 26.3983C114.41 26.3983 113.039 25.1594 113.04 22.6817V15.173H110.759L110.758 15.4948ZM-0.291504 29.8931H1.37766V30.955H-0.291504V29.8931Z" fill="#1F2020"/>
</g>
<defs>
<clipPath id="clip0_5602_2">
<rect width="120" height="34" fill="white"/>
</clipPath>
</defs>
</svg>
