<svg width="785" height="265" viewBox="0 0 785 265" fill="none" xmlns="http://www.w3.org/2000/svg">
<g clip-path="url(#clip0_5253_4380)">
<path d="M371.481 144.796C371.481 157.263 364.531 166.167 349.918 166.167C334.413 166.167 328.001 157.796 328.001 145.331V69.1051H296.457V144.262C296.457 174.003 314.28 191.457 349.918 191.457C385.38 191.457 403.02 173.647 403.02 144.262V69.1051H371.481V144.796Z" fill="#0D0D0D"/>
<path d="M474.487 95.288C461.839 95.288 453.105 100.63 446.334 110.425H445.799V97.9572H417.824V189.141H446.869V138.741C446.869 127.521 453.284 119.509 462.906 119.509C472.353 119.509 477.162 126.096 477.162 135.715V189.141H506.21V129.838C506.21 109.534 494.448 95.288 474.487 95.288Z" fill="#0D0D0D"/>
<path d="M521.144 189.141H550.191V97.9572H521.144V189.141Z" fill="#0D0D0D"/>
<path d="M521.144 85.3203H550.191V61.8065H521.144V85.3203Z" fill="#0D0D0D"/>
<path d="M601.367 69.105H573.035V97.9564H560.919V121.481H573.035V165.099C573.035 184.69 585.154 190.209 602.083 190.209C609.921 190.209 615.444 189.497 617.941 188.784V167.592C616.871 167.592 614.021 167.772 611.524 167.772C605.287 167.772 601.367 165.99 601.367 158.864V121.481H617.941V97.9564H601.367V69.105Z" fill="#0D0D0D"/>
<path d="M679.776 136.78C676.925 145.687 674.431 157.796 674.431 157.796H674.075C674.075 157.796 671.224 145.687 668.373 136.78L656.079 97.9564H625.429L652.336 168.127C656.079 177.744 657.859 183.086 657.859 187.004C657.859 193.238 654.474 196.62 645.921 196.62H635.943V219.24H654.833C673.186 219.24 681.916 211.761 689.222 190.388L720.764 97.9564H691.717L679.776 136.78Z" fill="#0D0D0D"/>
<path d="M127.651 47.4149L169.621 71.6334C171.137 72.4722 171.175 74.8521 169.613 75.6932L119.728 104.477C118.223 105.346 116.433 105.287 115.025 104.475L65.146 75.6932C63.624 74.8606 63.579 72.4689 65.146 71.6279L107.108 47.4149V0.00364338L-0.000976562 61.8089V185.416L41.0826 161.711V113.274C41.056 111.539 43.0976 110.321 44.6055 111.253L94.4885 140.037C95.9964 140.908 96.8376 142.484 96.8376 144.107V201.671C96.8785 203.395 94.8443 204.632 93.3364 203.714L51.3556 179.49L10.2718 203.194L117.381 265L224.487 203.194L183.404 179.49L141.437 203.706C139.949 204.6 137.868 203.443 137.921 201.671V144.102C137.921 142.361 138.867 140.845 140.274 140.034L190.154 111.253C191.638 110.35 193.733 111.507 193.677 113.283V161.711L234.76 185.416V61.8089L127.651 0.00364338V47.4149Z" fill="#0D0D0D"/>
<path d="M777.033 130.068C775.438 132.748 773.304 134.879 770.634 136.465C767.954 138.055 764.988 138.848 761.728 138.848C758.474 138.848 755.503 138.055 752.828 136.465C750.155 134.879 748.018 132.748 746.429 130.068C744.835 127.397 744.042 124.434 744.042 121.174C744.042 117.918 744.835 114.951 746.429 112.281C748.018 109.604 750.155 107.471 752.828 105.883C755.503 104.293 758.474 103.5 761.728 103.5C764.988 103.5 767.954 104.293 770.634 105.883C773.304 107.471 775.438 109.604 777.033 112.281C778.618 114.951 779.414 117.918 779.414 121.174C779.414 124.434 778.618 127.397 777.033 130.068ZM783.198 112.133C781.99 109.322 780.325 106.851 778.193 104.718C776.058 102.587 773.586 100.922 770.771 99.7222C767.967 98.516 764.944 97.9171 761.728 97.9171C758.51 97.9171 755.494 98.516 752.682 99.7222C749.867 100.922 747.395 102.587 745.263 104.718C743.129 106.851 741.463 109.322 740.261 112.133C739.057 114.945 738.456 117.955 738.456 121.174C738.456 124.393 739.057 127.403 740.261 130.214C741.463 133.026 743.129 135.497 745.263 137.63C747.395 139.76 749.867 141.427 752.682 142.627C755.494 143.832 758.51 144.432 761.728 144.432C764.944 144.432 767.967 143.832 770.771 142.627C773.586 141.427 776.058 139.76 778.193 137.63C780.325 135.497 781.99 133.026 783.198 130.214C784.397 127.403 784.997 124.393 784.997 121.174C784.997 117.955 784.397 114.945 783.198 112.133Z" fill="#0D0D0D"/>
<path d="M764.741 119.921C763.994 120.562 763.3 120.883 762.661 120.883H758.296V113.674H762.773C763.341 113.674 763.994 113.906 764.741 114.372C765.487 114.838 765.86 115.733 765.86 117.045C765.86 118.323 765.487 119.283 764.741 119.921ZM769.899 121.04C770.659 119.948 771.037 118.617 771.037 117.045C771.037 115.497 770.673 114.212 769.945 113.194C769.221 112.175 768.34 111.422 767.314 110.929C766.288 110.436 765.333 110.189 764.461 110.189H753.582V131.643H758.296V124.372H762.971L766.735 131.643H771.913L767.495 123.29C768.417 122.738 769.232 122.015 769.899 121.04Z" fill="#0D0D0D"/>
</g>
<defs>
<clipPath id="clip0_5253_4380">
<rect width="785" height="265" fill="white"/>
</clipPath>
</defs>
</svg>
